<mxfile host="app.diagrams.net" modified="2023-12-27T10:29:19.755Z" agent="Mozilla/5.0 (Macintosh; Intel Mac OS X 10_15_7) AppleWebKit/537.36 (KHTML, like Gecko) Chrome/114.0.0.0 Safari/537.36" etag="coWd_hULtF_cdWVrj2Bx" version="22.1.12" type="github">
  <diagram name="第 1 页" id="n8avImuRTFUfYN2fIWfb">
    <mxGraphModel dx="734" dy="474" grid="1" gridSize="10" guides="1" tooltips="1" connect="1" arrows="1" fold="1" page="1" pageScale="1" pageWidth="827" pageHeight="1169" math="0" shadow="0">
      <root>
        <mxCell id="0" />
        <mxCell id="1" parent="0" />
        <mxCell id="YbZIvQHaLTYlSCHuMPXj-17" value="" style="rounded=0;whiteSpace=wrap;html=1;" vertex="1" parent="1">
          <mxGeometry x="80" y="40" width="650" height="390" as="geometry" />
        </mxCell>
        <mxCell id="YbZIvQHaLTYlSCHuMPXj-5" style="edgeStyle=orthogonalEdgeStyle;rounded=0;orthogonalLoop=1;jettySize=auto;html=1;exitX=1;exitY=0.25;exitDx=0;exitDy=0;entryX=0;entryY=0.5;entryDx=0;entryDy=0;" edge="1" parent="1" source="YbZIvQHaLTYlSCHuMPXj-2" target="YbZIvQHaLTYlSCHuMPXj-3">
          <mxGeometry relative="1" as="geometry" />
        </mxCell>
        <mxCell id="YbZIvQHaLTYlSCHuMPXj-6" style="edgeStyle=orthogonalEdgeStyle;rounded=0;orthogonalLoop=1;jettySize=auto;html=1;exitX=1;exitY=0.75;exitDx=0;exitDy=0;entryX=0;entryY=0.5;entryDx=0;entryDy=0;" edge="1" parent="1" source="YbZIvQHaLTYlSCHuMPXj-2" target="YbZIvQHaLTYlSCHuMPXj-4">
          <mxGeometry relative="1" as="geometry" />
        </mxCell>
        <mxCell id="YbZIvQHaLTYlSCHuMPXj-2" value="请求参数&lt;font color=&quot;#ff0000&quot;&gt;isVip = 1&lt;/font&gt;" style="rounded=1;whiteSpace=wrap;html=1;" vertex="1" parent="1">
          <mxGeometry x="100" y="240" width="120" height="40" as="geometry" />
        </mxCell>
        <mxCell id="YbZIvQHaLTYlSCHuMPXj-3" value="会员用户" style="rounded=1;whiteSpace=wrap;html=1;fillColor=#fff2cc;strokeColor=#d6b656;" vertex="1" parent="1">
          <mxGeometry x="275" y="190" width="90" height="40" as="geometry" />
        </mxCell>
        <mxCell id="YbZIvQHaLTYlSCHuMPXj-4" value="破解端用户" style="rounded=1;whiteSpace=wrap;html=1;fillColor=#f8cecc;strokeColor=#b85450;" vertex="1" parent="1">
          <mxGeometry x="275" y="300" width="90" height="40" as="geometry" />
        </mxCell>
        <mxCell id="YbZIvQHaLTYlSCHuMPXj-7" value="" style="endArrow=none;dashed=1;html=1;dashPattern=1 3;strokeWidth=2;rounded=0;" edge="1" parent="1">
          <mxGeometry width="50" height="50" relative="1" as="geometry">
            <mxPoint x="400" y="380" as="sourcePoint" />
            <mxPoint x="400" y="130" as="targetPoint" />
          </mxGeometry>
        </mxCell>
        <mxCell id="YbZIvQHaLTYlSCHuMPXj-9" value="&lt;font style=&quot;font-size: 13px;&quot;&gt;http_user_is_vip&lt;/font&gt;" style="edgeLabel;html=1;align=center;verticalAlign=middle;resizable=0;points=[];" vertex="1" connectable="0" parent="YbZIvQHaLTYlSCHuMPXj-7">
          <mxGeometry x="-0.0511" y="-3" relative="1" as="geometry">
            <mxPoint y="-2" as="offset" />
          </mxGeometry>
        </mxCell>
        <mxCell id="YbZIvQHaLTYlSCHuMPXj-12" value="过滤" style="edgeLabel;html=1;align=center;verticalAlign=middle;resizable=0;points=[];" vertex="1" connectable="0" parent="YbZIvQHaLTYlSCHuMPXj-7">
          <mxGeometry x="0.8966" y="-1" relative="1" as="geometry">
            <mxPoint as="offset" />
          </mxGeometry>
        </mxCell>
        <mxCell id="YbZIvQHaLTYlSCHuMPXj-10" value="破解端用户" style="rounded=1;whiteSpace=wrap;html=1;fillColor=#f8cecc;strokeColor=#b85450;" vertex="1" parent="1">
          <mxGeometry x="490" y="240" width="90" height="40" as="geometry" />
        </mxCell>
        <mxCell id="YbZIvQHaLTYlSCHuMPXj-11" style="edgeStyle=orthogonalEdgeStyle;rounded=0;orthogonalLoop=1;jettySize=auto;html=1;" edge="1" parent="1">
          <mxGeometry relative="1" as="geometry">
            <mxPoint x="455" y="260.5" as="sourcePoint" />
            <mxPoint x="490" y="259.5" as="targetPoint" />
            <Array as="points">
              <mxPoint x="456" y="260.5" />
              <mxPoint x="455" y="259.5" />
            </Array>
          </mxGeometry>
        </mxCell>
        <mxCell id="YbZIvQHaLTYlSCHuMPXj-16" value="http_user_is_vip：&lt;br&gt;0—非会员&lt;br&gt;1—老会员&lt;br&gt;2—svip&amp;nbsp; &amp;nbsp;&amp;nbsp;" style="rounded=0;whiteSpace=wrap;html=1;fillColor=#dae8fc;strokeColor=#6c8ebf;" vertex="1" parent="1">
          <mxGeometry x="540" y="120" width="120" height="60" as="geometry" />
        </mxCell>
      </root>
    </mxGraphModel>
  </diagram>
</mxfile>
